:SAMPLES-PER-SECOND 30
:FULLY-SPECIFIED
:DEGREES
139
root  34.91242476 36.50105995 -14.93384143 8.476810455 -8.974624634 4.543022633
lowerback  -7.388566494 -1.372990727 -1.064211369
upperback  -3.745409966 -1.346740007 -3.619240046
thorax  0.2121230066 -0.5166223049 -3.235510111
lowerneck  1.359719992 -19.96139908 -14.19509983
upperneck  11.76970005 -28.51950073 16.89080048
head  7.921327114 -13.47276497 4.725664139
lclavicle  0 -4.497500157e-015 -2.743230041e-014
lhumerus  -46.27209854 25.48259926 66.22029877
lradius  -0.04751641676 -6.507048965e-006 30.81150055
lwrist  4.824992743e-007 -3.790274832e-007 -26.46279907
lhand  -4.411182526e-031 -36.8227005 -10.63710022
lfingers  90 7.125020027 -90
lthumb  94.77182066 -25.4763274 100.9828883
rclavicle  0 -4.497500157e-015 -2.743230041e-014
rhumerus  -28.33259964 -34.59349823 -10.50790119
rradius  -5.16745672e-007 2.214343908e-008 66.48220062
rwrist  -7.499573258e-005 0.03438235447 -168.5449982
rhand  -0 4.759829998 -5.176459789
rfingers  -90 -7.125020027 -90
rthumb  -83.77184752 -10.58332966 -59.28168214
rfemur  -13.64280701 17.1076088 11.35194874
rtibia  -1.678369164 -2.323935747 21.80239296
rfoot  0.241907686 -23.73996353 -33.78507996
rtoes  3.994075507 19.61314827 -101.7506404
lfemur  -8.523144722 -16.93023872 -21.86308861
ltibia  2.449198961 -2.802850008 15.33844757
lfoot  1.199628592 -20.54187202 39.68595123
ltoes  -8.577021336 -18.13592487 -115.8522941
140
root  34.91350009 36.50108698 -14.93499335 8.475193977 -8.989046097 4.531216621
lowerback  -7.390517712 -1.3729918 -1.070165396
upperback  -3.739609957 -1.344779968 -3.636749983
thorax  0.2202370018 -0.5162235498 -3.251600027
lowerneck  1.370309949 -19.95899963 -14.16870022
upperneck  11.7439003 -28.51679993 16.91519928
head  7.912399292 -13.47039413 4.73435545
lclavicle  0 -4.497500157e-015 -2.743230041e-014
lhumerus  -46.2405014 25.54920006 66.12979889
lradius  -0.0475053452 -6.507048965e-006 30.7227993
lwrist  4.824992743e-007 -3.790274832e-007 -26.59569931
lhand  -0 -36.7181015 -10.67800045
lfingers  90 7.125020027 -90
lthumb  94.73144102 -25.52013213 100.8747372
rclavicle  0 -4.497500157e-015 -2.743230041e-014
rhumerus  -27.76869965 -34.79079819 -10.42809868
rradius  -5.16745672e-007 2.214343908e-008 65.35379791
rwrist  -7.499573258e-005 0.03438235447 -167.9989929
rhand  -1.771977984e-031 4.877009869 -5.090240002
rfingers  -90 -7.125020027 -90
rthumb  -83.69550136 -10.662709 -59.15837946
rfemur  -13.64385796 17.10754395 11.3617506
rtibia  -1.676089764 -2.326787949 21.79460907
rfoot  0.2497271746 -23.74253845 -33.76768494
rtoes  4.013553378 19.60932197 -101.808673
lfemur  -8.58170414 -16.91459656 -21.82350159
ltibia  2.395081758 -2.804940701 15.41971779
lfoot  1.190091372 -20.58127975 39.65763855
ltoes  -8.585862093 -18.13185131 -115.8806992
141
root  34.91488179 36.50096683 -14.93676554 8.470602036 -9.007059097 4.524518013
lowerback  -7.391776562 -1.373280525 -1.073066592
upperback  -3.732029915 -1.336969972 -3.637629986
thorax  0.2279279977 -0.5159087777 -3.249269962
lowerneck  1.378939986 -19.9810009 -14.19379997
upperneck  11.7354002 -28.54839897 16.91329956
head  7.911878109 -13.48805046 4.736780167
lclavicle  0 -4.497500157e-015 -2.743230041e-014
lhumerus  -46.21680069 25.68630028 66.03949738
lradius  -0.04731895402 -6.507048965e-006 30.61980057
lwrist  4.824992743e-007 -3.790274832e-007 -26.73259926
lhand  -0 -36.74980164 -10.67959976
lfingers  90 7.125020027 -90
lthumb  94.74662508 -25.52065177 100.908754
rclavicle  0 -4.497500157e-015 -2.743230041e-014
rhumerus  -27.26959991 -34.96689987 -10.32520008
rradius  -5.16745672e-007 2.214343908e-008 64.24330139
rwrist  -7.499573258e-005 0.03438235447 -167.7940063
rhand  -1.772290075e-031 4.993859768 -5.817249775
rfingers  -90 -7.125020027 -90
rthumb  -84.04370818 -10.04436399 -59.11200053
rfemur  -13.65837002 17.10877609 11.36664391
rtibia  -1.680830717 -2.329914331 21.8063736
rfoot  0.2434275299 -23.76971436 -33.75740814
rtoes  4.018955064 19.60825739 -101.8247688
lfemur  -8.639028549 -16.90666008 -21.78380966
ltibia  2.343872309 -2.810837269 15.49611378
lfoot  1.192849517 -20.60812759 39.66560745
ltoes  -8.641670452 -18.10601537 -116.0601526
142
root  34.91546751 36.50049825 -14.93871644 8.460726738 -9.005042076 4.530628681
lowerback  -7.404118538 -1.373671889 -1.07361722
upperback  -3.728290081 -1.334670901 -3.638042688
thorax  0.2383870035 -0.5156145096 -3.24368
lowerneck  1.375530005 -19.99250031 -14.21080017
upperneck  11.73260021 -28.56380272 16.90119934
head  7.914130211 -13.49740028 4.736616135
lclavicle  0 -4.497500157e-015 -2.743230041e-014
lhumerus  -46.22299957 25.77840042 65.96219635
lradius  -0.04708008096 -6.507048965e-006 30.57789993
lwrist  4.824992743e-007 -3.790274832e-007 -26.88330078
lhand  -4.409114963e-031 -36.78680038 -10.62679958
lfingers  90 7.125020027 -90
lthumb  94.75286004 -25.46752216 100.9435516
rclavicle  0 -4.497500157e-015 -2.743230041e-014
rhumerus  -26.71920013 -35.25469589 -10.28070068
rradius  -5.16745672e-007 2.214343908e-008 63.09949875
rwrist  -7.499573258e-005 0.03438235447 -167.3399963
rhand  -1.771977825e-031 4.876949787 -6.405189991
rfingers  -90 -7.125020027 -90
rthumb  -84.37901918 -9.533044396 -59.278327
rfemur  -13.66505814 17.15429497 11.35786247
rtibia  -1.6883564 -2.332383871 21.82658005
rfoot  0.2219474018 -23.78162956 -33.80302429
rtoes  3.994110764 19.61314136 -101.7507454
lfemur  -8.559892654 -16.92548752 -21.82366943
ltibia  2.395456553 -2.785764933 15.40262985
lfoot  1.234314203 -20.62335396 39.79536438
ltoes  -8.626732795 -18.11295114 -116.0120959
143
root  34.91679815 36.50044118 -14.94073492 8.458547592 -9.018293381 4.542819977
lowerback  -7.407147884 -1.373980999 -1.041635036
upperback  -3.718590021 -1.334094524 -3.638132334
thorax  0.2494859993 -0.5152772069 -3.268340111
lowerneck  1.381299973 -20.00149918 -14.22340012
upperneck  11.71249962 -28.57920265 16.92970085
head  7.915589809 -13.50479984 4.735452652
lclavicle  0 -4.497500157e-015 -2.743230041e-014
lhumerus  -46.20370102 25.74609947 65.96959686
lradius  -0.04684153572 -6.507048965e-006 30.58580017
lwrist  4.824992743e-007 -3.790274832e-007 -26.86219978
lhand  -4.408804191e-031 -36.78139877 -10.56739998
lfingers  90 7.125020027 -90
lthumb  94.73786758 -25.40943696 100.9324231
rclavicle  0 -4.497500157e-015 -2.743230041e-014
rhumerus  -26.26850128 -35.53970337 -10.15379906
rradius  -5.16745672e-007 2.214343908e-008 61.90819931
rwrist  -7.499573258e-005 0.03438235447 -167.302002
rhand  -1.772135592e-031 4.936369896 -6.2323699
rfingers  -90 -7.125020027 -90
rthumb  -84.27444194 -9.684869916 -59.20524015
rfemur  -13.67875481 17.18693924 11.34484291
rtibia  -1.69659996 -2.334964275 21.8496685
rfoot  0.2152358145 -23.76753807 -33.80801773
rtoes  4.012131556 19.60960194 -101.8044365
lfemur  -8.531004906 -16.94306374 -21.8519001
ltibia  2.418534756 -2.800007343 15.35865021
lfoot  1.227689862 -20.56978798 39.81290436
ltoes  -8.598164115 -18.12617419 -115.9202355
144
root  34.91845619 36.50040214 -14.9424215 8.457344055 -9.035283089 4.547855854
lowerback  -7.423784256 -1.374022841 -1.062347412
upperback  -3.716470003 -1.334393263 -3.638920784
thorax  0.2613759935 -0.5148332119 -3.26237011
lowerneck  1.415959954 -19.99279976 -14.19139957
upperneck  11.65089989 -28.56240082 16.93449974
head  7.882790089 -13.50109959 4.735060215
lclavicle  0 -4.497500157e-015 -2.743230041e-014
lhumerus  -46.2098999 25.76659966 65.91870117
lradius  -0.04660292715 -6.507048965e-006 30.55270004
lwrist  4.824992743e-007 -3.790274832e-007 -26.93720055
lhand  -4.414131695e-031 -36.87379837 -10.66059971
lfingers  90 7.125020027 -90
lthumb  94.80071568 -25.4976377 101.0396607
rclavicle  0 -4.497500157e-015 -2.743230041e-014
rhumerus  -25.7241993 -35.82520294 -10.09899712
rradius  -5.16745672e-007 2.214343908e-008 60.73590088
rwrist  -7.499573258e-005 0.03438235447 -166.8560028
rhand  -1.772438771e-031 5.048570156 -6.01075983
rfingers  -90 -7.125020027 -90
rthumb  -84.1304384 -9.881284312 -59.07586599
rfemur  -13.68431187 17.2150116 11.3503685
rtibia  -1.700119972 -2.337448597 21.85905457
rfoot  0.2113440335 -23.75953865 -33.83006668
rtoes  4.012487098 19.60953194 -101.8054959
lfemur  -8.4858284 -16.95145607 -21.86709404
ltibia  2.456155777 -2.810322762 15.29788113
lfoot  1.235969305 -20.50380707 39.85487747
ltoes  -8.571644587 -18.13839975 -115.8350218
